<svg width="127" height="20" viewBox="0 0 127 20" fill="none" xmlns="http://www.w3.org/2000/svg">
<path d="M19.8153 8.08015C18.7547 2.66304 13.4973 -0.872679 8.08019 0.187961C2.66304 1.2486 -0.872672 6.50595 0.187958 11.9231C1.2486 17.3403 6.50589 20.876 11.9231 19.8153C17.3402 18.7547 20.8759 13.4974 19.8153 8.08015ZM15.4509 14.5698L6.39139 8.47695L6.97169 11.4407C7.05049 11.843 6.78209 12.242 6.37979 12.3208C5.97739 12.3996 5.5784 12.1313 5.49962 11.7289L4.57156 6.98885C4.49278 6.58645 4.76112 6.18745 5.16348 6.10875L9.90349 5.18066C10.3059 5.10188 10.7048 5.37021 10.7836 5.77257C10.8624 6.17495 10.5941 6.57395 10.1917 6.65275L7.22799 7.23295L16.2875 13.3258C16.4635 13.4442 16.5687 13.6172 16.6052 13.8037C16.6417 13.9901 16.6095 14.1901 16.4912 14.3661C16.2623 14.7064 15.7912 14.7986 15.4509 14.5698Z" fill="white"/>
<path d="M31.1602 14.832C31.1602 15.2357 31.1862 15.5677 31.2383 15.8281C31.2904 16.0755 31.388 16.2708 31.5312 16.4141C31.6875 16.5573 31.9023 16.6615 32.1758 16.7266C32.4492 16.7786 32.8073 16.8112 33.25 16.8242V17.2344H27V16.8242C27.4297 16.7852 27.7617 16.7331 27.9961 16.668C28.2435 16.6029 28.4323 16.4922 28.5625 16.3359C28.6927 16.1797 28.7708 15.9648 28.7969 15.6914C28.8359 15.4049 28.8555 15.0273 28.8555 14.5586V4.91016C28.8555 4.50651 28.8359 4.1875 28.7969 3.95312C28.7578 3.70573 28.6732 3.51693 28.543 3.38672C28.4128 3.24349 28.224 3.13932 27.9766 3.07422C27.7292 3.00911 27.4036 2.95703 27 2.91797V2.46875H32.8789C33.9857 2.46875 34.9818 2.625 35.8672 2.9375C36.7656 3.25 37.4427 3.66016 37.8984 4.16797C38.4583 4.83203 38.7383 5.61328 38.7383 6.51172C38.7383 7.25391 38.543 7.94401 38.1523 8.58203C37.7747 9.20703 37.2539 9.70182 36.5898 10.0664C36.1081 10.3268 35.5547 10.5156 34.9297 10.6328C34.3177 10.75 33.569 10.8086 32.6836 10.8086C32.3971 10.8086 32.1432 10.8086 31.9219 10.8086C31.7135 10.7956 31.4596 10.7826 31.1602 10.7695V14.832ZM31.1602 9.85156C31.4206 9.8776 31.6354 9.89714 31.8047 9.91016C31.987 9.92318 32.1888 9.92969 32.4102 9.92969C35.0013 9.92969 36.2969 8.83594 36.2969 6.64844C36.2969 5.48958 35.9388 4.64323 35.2227 4.10938C34.5195 3.57552 33.4062 3.30859 31.8828 3.30859C31.5833 3.30859 31.388 3.36068 31.2969 3.46484C31.2057 3.55599 31.1602 3.75781 31.1602 4.07031V9.85156Z" fill="white"/>
<path d="M39.4609 2.97656C39.8516 2.88542 40.1966 2.80729 40.4961 2.74219C40.8086 2.66406 41.1016 2.58594 41.375 2.50781C41.6615 2.42969 41.9349 2.35156 42.1953 2.27344C42.4557 2.19531 42.7292 2.10417 43.0156 2L43.1133 2.05859V15.3594C43.1133 15.6719 43.1328 15.9258 43.1719 16.1211C43.2109 16.3034 43.2891 16.4531 43.4062 16.5703C43.5234 16.6745 43.6862 16.7526 43.8945 16.8047C44.1159 16.8568 44.4023 16.8958 44.7539 16.9219V17.2344H39.5195V16.9219C39.8711 16.8828 40.1576 16.8372 40.3789 16.7852C40.6003 16.7201 40.776 16.6289 40.9062 16.5117C41.0365 16.3815 41.1211 16.2188 41.1602 16.0234C41.2122 15.8281 41.2383 15.5807 41.2383 15.2812V4.65625C41.2383 4.13542 41.1667 3.78385 41.0234 3.60156C40.8932 3.40625 40.6523 3.30859 40.3008 3.30859C40.1966 3.30859 40.0794 3.3151 39.9492 3.32812C39.832 3.32812 39.7148 3.33464 39.5977 3.34766H39.4609V2.97656Z" fill="white"/>
<path d="M53.4648 14.8906C53.4648 15.3854 53.5104 15.7305 53.6016 15.9258C53.6927 16.1081 53.8685 16.1992 54.1289 16.1992C54.4284 16.1992 54.7539 16.0625 55.1055 15.7891V16.3555C54.7279 16.7721 54.3958 17.0586 54.1094 17.2148C53.8229 17.3711 53.4909 17.4492 53.1133 17.4492C52.6576 17.4492 52.319 17.3255 52.0977 17.0781C51.8893 16.8177 51.7591 16.388 51.707 15.7891C51.0299 16.375 50.4375 16.7982 49.9297 17.0586C49.4219 17.319 48.9271 17.4492 48.4453 17.4492C47.7422 17.4492 47.1693 17.2279 46.7266 16.7852C46.2969 16.3424 46.082 15.7695 46.082 15.0664C46.082 14.7148 46.1471 14.3633 46.2773 14.0117C46.4206 13.6471 46.6224 13.3542 46.8828 13.1328C47.1172 12.9245 47.332 12.7487 47.5273 12.6055C47.7357 12.4492 48.0026 12.293 48.3281 12.1367C48.6536 11.9674 49.0768 11.7786 49.5977 11.5703C50.1185 11.362 50.8086 11.082 51.668 10.7305V9.30469C51.668 8.69271 51.5182 8.23047 51.2188 7.91797C50.9323 7.60547 50.5156 7.44922 49.9688 7.44922C49.513 7.44922 49.1289 7.5599 48.8164 7.78125C48.5169 7.98958 48.3672 8.24349 48.3672 8.54297C48.3672 8.66016 48.3802 8.8099 48.4062 8.99219C48.4453 9.17448 48.4648 9.32422 48.4648 9.44141C48.4648 9.70182 48.3607 9.92318 48.1523 10.1055C47.957 10.2878 47.7292 10.3789 47.4688 10.3789C47.2083 10.3789 46.9805 10.2878 46.7852 10.1055C46.6029 9.91016 46.5117 9.68229 46.5117 9.42188C46.5117 9.13542 46.5898 8.84245 46.7461 8.54297C46.9154 8.24349 47.1432 7.97656 47.4297 7.74219C47.7292 7.48177 48.1263 7.27995 48.6211 7.13672C49.1289 6.99349 49.6758 6.92188 50.2617 6.92188C50.9388 6.92188 51.5052 7.03906 51.9609 7.27344C52.4297 7.49479 52.7878 7.80729 53.0352 8.21094C53.1914 8.47135 53.3021 8.77734 53.3672 9.12891C53.4323 9.46745 53.4648 9.92969 53.4648 10.5156V14.8906ZM51.668 11.2773C50.9909 11.5247 50.4115 11.7656 49.9297 12C49.4609 12.2214 49.0768 12.4557 48.7773 12.7031C48.4909 12.9375 48.2826 13.1914 48.1523 13.4648C48.0221 13.7383 47.957 14.0378 47.957 14.3633V14.4609C47.957 14.6953 47.9961 14.9232 48.0742 15.1445C48.1523 15.3529 48.2565 15.5352 48.3867 15.6914C48.5299 15.8477 48.6927 15.9714 48.875 16.0625C49.0573 16.1536 49.2461 16.1992 49.4414 16.1992C49.6758 16.1992 49.9362 16.1536 50.2227 16.0625C50.5221 15.9583 50.8021 15.8346 51.0625 15.6914C51.3229 15.5482 51.4857 15.3984 51.5508 15.2422C51.6289 15.0859 51.668 14.8385 51.668 14.5V11.2773Z" fill="white"/>
<path d="M60.8477 7.89844H58.582V14.3047C58.582 15.0208 58.6732 15.5352 58.8555 15.8477C59.0378 16.1471 59.3307 16.2969 59.7344 16.2969C59.9948 16.2969 60.2227 16.2448 60.418 16.1406C60.6133 16.0234 60.8411 15.8151 61.1016 15.5156L61.375 15.7891C60.6719 16.8958 59.7734 17.4492 58.6797 17.4492C57.3646 17.4492 56.707 16.5052 56.707 14.6172V7.89844H55.5352C55.4831 7.88542 55.457 7.83984 55.457 7.76172C55.457 7.63151 55.5807 7.48828 55.8281 7.33203C56.4141 6.99349 57.1367 6.19922 57.9961 4.94922C58.0612 4.84505 58.1328 4.7474 58.2109 4.65625C58.3021 4.55208 58.3802 4.44141 58.4453 4.32422C58.4974 4.32422 58.5299 4.34375 58.543 4.38281C58.569 4.42188 58.582 4.5 58.582 4.61719V7.19531H60.8477V7.89844Z" fill="white"/>
<path d="M68.2695 7.89844H65.5352V14.9297C65.5352 15.3464 65.5547 15.6849 65.5938 15.9453C65.6458 16.1927 65.7435 16.388 65.8867 16.5312C66.0299 16.6615 66.2383 16.7591 66.5117 16.8242C66.7852 16.8763 67.1497 16.9089 67.6055 16.9219V17.2344H61.8242V16.9219C62.2279 16.8958 62.5469 16.8568 62.7812 16.8047C63.0286 16.7396 63.2174 16.6354 63.3477 16.4922C63.4779 16.349 63.5625 16.1536 63.6016 15.9062C63.6406 15.6589 63.6602 15.3333 63.6602 14.9297V7.89844H61.8438V7.15625H63.6602C63.6602 6.71354 63.6732 6.32943 63.6992 6.00391C63.7383 5.66536 63.7839 5.36589 63.8359 5.10547C63.901 4.83203 63.9792 4.57812 64.0703 4.34375C64.1745 4.10938 64.2982 3.86849 64.4414 3.62109C64.7279 3.1263 65.1445 2.73568 65.6914 2.44922C66.2513 2.14974 66.8828 2 67.5859 2C68.263 2 68.8164 2.13021 69.2461 2.39062C69.6888 2.65104 69.9102 2.98307 69.9102 3.38672C69.9102 3.64714 69.819 3.86849 69.6367 4.05078C69.4674 4.23307 69.2461 4.32422 68.9727 4.32422C68.7904 4.32422 68.6211 4.26562 68.4648 4.14844C68.3086 4.01823 68.1458 3.80339 67.9766 3.50391C67.7812 3.17839 67.5924 2.95703 67.4102 2.83984C67.2409 2.70964 67.0326 2.64453 66.7852 2.64453C65.9388 2.64453 65.5156 3.30208 65.5156 4.61719V7.15625H68.2695V7.89844Z" fill="white"/>
<path d="M74.3828 6.98047C75.099 6.98047 75.7565 7.10417 76.3555 7.35156C76.9544 7.59896 77.4688 7.95052 77.8984 8.40625C78.3411 8.84896 78.6862 9.3763 78.9336 9.98828C79.181 10.6003 79.3047 11.2773 79.3047 12.0195C79.3047 12.8008 79.1745 13.5234 78.9141 14.1875C78.6667 14.8385 78.3216 15.4115 77.8789 15.9062C77.4362 16.388 76.9089 16.7656 76.2969 17.0391C75.6979 17.3125 75.0469 17.4492 74.3438 17.4492C73.6406 17.4492 72.9896 17.319 72.3906 17.0586C71.7917 16.7982 71.2773 16.4336 70.8477 15.9648C70.418 15.4961 70.0794 14.9427 69.832 14.3047C69.5846 13.6667 69.4609 12.9701 69.4609 12.2148C69.4609 11.4466 69.5781 10.7435 69.8125 10.1055C70.0599 9.45443 70.3984 8.90104 70.8281 8.44531C71.2578 7.97656 71.7721 7.61849 72.3711 7.37109C72.9831 7.11068 73.6536 6.98047 74.3828 6.98047ZM74.0508 7.60547C73.2695 7.60547 72.6445 7.92448 72.1758 8.5625C71.707 9.20052 71.4727 10.0469 71.4727 11.1016C71.4727 11.8958 71.5573 12.6706 71.7266 13.4258C71.8958 14.168 72.1367 14.832 72.4492 15.418C72.6836 15.8737 72.9961 16.2253 73.3867 16.4727C73.7773 16.7201 74.2005 16.8438 74.6562 16.8438C75.4766 16.8438 76.1146 16.4857 76.5703 15.7695C77.0391 15.0404 77.2734 14.0443 77.2734 12.7812C77.2734 11.8307 77.1367 10.9453 76.8633 10.125C76.5898 9.30469 76.2188 8.6862 75.75 8.26953C75.5026 8.03516 75.2422 7.86589 74.9688 7.76172C74.6953 7.65755 74.3893 7.60547 74.0508 7.60547Z" fill="white"/>
<path d="M80.125 8.21094C80.4505 8.09375 80.75 7.98958 81.0234 7.89844C81.2969 7.79427 81.5573 7.69661 81.8047 7.60547C82.0651 7.5013 82.319 7.40365 82.5664 7.3125C82.8268 7.20833 83.1068 7.09766 83.4062 6.98047L83.543 7.01953V9.07031C83.8164 8.66667 84.0638 8.33464 84.2852 8.07422C84.5065 7.80078 84.7214 7.58594 84.9297 7.42969C85.138 7.26042 85.3398 7.14323 85.5352 7.07812C85.7435 7.01302 85.9648 6.98047 86.1992 6.98047C86.5768 6.98047 86.8763 7.09115 87.0977 7.3125C87.319 7.52083 87.4297 7.80078 87.4297 8.15234C87.4297 8.47786 87.3516 8.73177 87.1953 8.91406C87.0391 9.08333 86.8307 9.16797 86.5703 9.16797C86.4271 9.16797 86.2839 9.14193 86.1406 9.08984C86.0104 9.02474 85.8542 8.90104 85.6719 8.71875C85.5547 8.61458 85.444 8.53646 85.3398 8.48438C85.2357 8.43229 85.151 8.40625 85.0859 8.40625C84.9297 8.40625 84.7604 8.47135 84.5781 8.60156C84.4089 8.71875 84.2461 8.86849 84.0898 9.05078C83.9336 9.23307 83.8034 9.42839 83.6992 9.63672C83.5951 9.84505 83.543 10.0404 83.543 10.2227V15.2422C83.543 15.5547 83.569 15.8151 83.6211 16.0234C83.6732 16.2318 83.7708 16.401 83.9141 16.5312C84.0573 16.6484 84.2526 16.7396 84.5 16.8047C84.7474 16.8698 85.0599 16.9089 85.4375 16.9219V17.2344H80.0664V16.9219C80.418 16.8568 80.6979 16.7917 80.9062 16.7266C81.1276 16.6484 81.2904 16.5573 81.3945 16.4531C81.5117 16.349 81.5833 16.2122 81.6094 16.043C81.6484 15.8607 81.668 15.6328 81.668 15.3594V9.79297C81.668 9.29818 81.6094 8.95312 81.4922 8.75781C81.375 8.54948 81.1797 8.44531 80.9062 8.44531C80.763 8.44531 80.6328 8.45182 80.5156 8.46484C80.4115 8.47786 80.2812 8.50391 80.125 8.54297V8.21094Z" fill="white"/>
<path d="M87.8203 7.97656C88.1328 7.89844 88.4128 7.82031 88.6602 7.74219C88.9206 7.66406 89.1745 7.58594 89.4219 7.50781C89.6693 7.42969 89.9102 7.35156 90.1445 7.27344C90.3919 7.18229 90.6589 7.08464 90.9453 6.98047L91.1016 7.01953V8.69922C91.5703 8.34766 91.9674 8.0612 92.293 7.83984C92.6185 7.60547 92.9049 7.42969 93.1523 7.3125C93.4128 7.18229 93.6471 7.09766 93.8555 7.05859C94.0638 7.00651 94.2917 6.98047 94.5391 6.98047C95.75 6.98047 96.5378 7.61198 96.9023 8.875C97.5273 8.21094 98.1263 7.72917 98.6992 7.42969C99.2852 7.13021 99.9036 6.98047 100.555 6.98047C102.286 6.98047 103.152 8.29557 103.152 10.9258V15.5352C103.152 16.3815 103.478 16.8242 104.129 16.8633L104.695 16.9219V17.2344H99.8125V16.9219C100.138 16.8828 100.392 16.8372 100.574 16.7852C100.77 16.7201 100.913 16.6354 101.004 16.5312C101.108 16.4141 101.173 16.2578 101.199 16.0625C101.238 15.8672 101.258 15.6068 101.258 15.2812V10.5938C101.258 10.125 101.232 9.73438 101.18 9.42188C101.128 9.10938 101.036 8.86198 100.906 8.67969C100.776 8.48438 100.6 8.34766 100.379 8.26953C100.171 8.17839 99.9102 8.13281 99.5977 8.13281C99.0768 8.13281 98.6276 8.24349 98.25 8.46484C97.8724 8.67318 97.5143 9.01823 97.1758 9.5V15.125C97.1758 15.4635 97.1953 15.75 97.2344 15.9844C97.2865 16.2057 97.3711 16.388 97.4883 16.5312C97.6185 16.6615 97.7878 16.7591 97.9961 16.8242C98.2044 16.8763 98.4648 16.9089 98.7773 16.9219V17.2344H93.7773V16.9219C94.0898 16.8958 94.3438 16.8568 94.5391 16.8047C94.7474 16.7526 94.9036 16.668 95.0078 16.5508C95.125 16.4336 95.2031 16.2773 95.2422 16.082C95.2812 15.8867 95.3008 15.6328 95.3008 15.3203V10.4766C95.3008 8.91406 94.819 8.13281 93.8555 8.13281C93.4388 8.13281 93.0026 8.22396 92.5469 8.40625C92.1042 8.58854 91.7526 8.8099 91.4922 9.07031C91.2969 9.29167 91.1992 9.42188 91.1992 9.46094V15.75C91.1992 16.1927 91.2969 16.4922 91.4922 16.6484C91.7005 16.8047 92.1042 16.8958 92.7031 16.9219V17.2344H87.7617V16.9219C88.0742 16.9089 88.3281 16.8763 88.5234 16.8242C88.7318 16.7721 88.8945 16.6875 89.0117 16.5703C89.1289 16.4531 89.207 16.2969 89.2461 16.1016C89.2982 15.8932 89.3242 15.6393 89.3242 15.3398V9.69531C89.3242 9.14844 89.2656 8.77734 89.1484 8.58203C89.0443 8.3737 88.8424 8.26953 88.543 8.26953C88.4128 8.26953 88.2956 8.28255 88.1914 8.30859C88.1003 8.32161 87.9766 8.34115 87.8203 8.36719V7.97656Z" fill="white"/>
<path d="M126.121 2.91797C125.77 2.93099 125.464 2.97005 125.203 3.03516C124.943 3.08724 124.695 3.1849 124.461 3.32812C124.227 3.47135 123.979 3.67969 123.719 3.95312C123.471 4.21354 123.165 4.5651 122.801 5.00781L119.539 9.07031L123.836 15.1641C124.07 15.4896 124.272 15.7565 124.441 15.9648C124.624 16.1602 124.799 16.3164 124.969 16.4336C125.151 16.5508 125.346 16.6354 125.555 16.6875C125.763 16.7396 126.017 16.7852 126.316 16.8242V17.2344H119.695V16.8242L120.281 16.7656C121.023 16.7526 121.395 16.5378 121.395 16.1211C121.395 15.7826 121.017 15.0534 120.262 13.9336L118.152 10.8086L115.477 14.1094C115.073 14.6302 114.78 15.0404 114.598 15.3398C114.415 15.6393 114.324 15.8672 114.324 16.0234C114.324 16.2839 114.441 16.4727 114.676 16.5898C114.923 16.694 115.372 16.7721 116.023 16.8242V17.2344H110.828V16.8242C111.115 16.7982 111.349 16.7656 111.531 16.7266C111.714 16.6745 111.909 16.5703 112.117 16.4141C112.326 16.2448 112.573 15.9974 112.859 15.6719C113.159 15.3333 113.556 14.8711 114.051 14.2852L117.547 9.96875L115.145 6.41406C114.585 5.63281 114.129 5.01432 113.777 4.55859C113.426 4.10286 113.113 3.75781 112.84 3.52344C112.566 3.27604 112.299 3.11979 112.039 3.05469C111.779 2.97656 111.466 2.93099 111.102 2.91797V2.46875H117.84V2.91797H117.215C116.499 2.93099 116.141 3.15234 116.141 3.58203C116.141 3.82943 116.284 4.21354 116.57 4.73438C116.87 5.24219 117.365 5.97135 118.055 6.92188L118.973 8.23047L121.492 5.14453C121.831 4.72786 122.059 4.41536 122.176 4.20703C122.306 3.98568 122.371 3.79036 122.371 3.62109C122.371 3.36068 122.267 3.1849 122.059 3.09375C121.85 2.98958 121.44 2.93099 120.828 2.91797V2.46875H126.121V2.91797Z" fill="white"/>
</svg>
